<svg width="165" height="163" viewBox="0 0 165 163" fill="none" xmlns="http://www.w3.org/2000/svg">
<path fill-rule="evenodd" clip-rule="evenodd" d="M75.3234 0.163589C68.1514 0.694589 57.5364 3.20059 51.2234 5.85259C46.4074 7.87559 41.9224 10.1296 38.6234 12.1846C31.4694 16.6406 24.4624 22.6556 19.3194 28.7566C18.7164 29.4716 18.1784 30.1016 18.1234 30.1566C18.0684 30.2116 17.5774 30.8416 17.0314 31.5566C16.4854 32.2716 15.9864 32.9016 15.9224 32.9566C15.7944 33.0666 13.1454 36.8536 12.8234 37.3876C12.7134 37.5706 12.1604 38.4706 11.5944 39.3886C9.89641 42.1406 7.79841 46.1776 6.62241 48.9566C6.31941 49.6716 5.95839 50.5266 5.81839 50.8566C3.46439 56.4206 1.6394 63.1356 0.492404 70.4566C-0.108596 74.2966 -0.176604 87.3526 0.383396 91.3566C1.2294 97.3946 1.7424 99.8676 3.1424 104.657C3.3674 105.427 3.6264 106.237 3.7164 106.457C3.8074 106.677 4.16841 107.667 4.51841 108.657C5.19541 110.571 5.6754 111.781 6.4644 113.557C6.7334 114.162 7.0914 114.972 7.2594 115.357C8.5134 118.221 12.4744 125.398 13.1094 125.957C13.1724 126.012 13.6714 126.732 14.2184 127.557C14.7654 128.382 15.2644 129.102 15.3274 129.157C15.3904 129.212 15.8844 129.842 16.4244 130.557C19.4304 134.537 25.5464 140.946 28.8234 143.551C29.7034 144.25 30.5134 144.92 30.6234 145.04C31.0614 145.516 36.9724 149.757 37.1984 149.757C37.2514 149.757 37.8194 150.103 38.4594 150.526C39.5744 151.263 40.2884 151.679 42.7234 153.013C44.6034 154.042 48.5584 155.957 48.8054 155.957C48.8714 155.957 49.3914 156.182 49.9614 156.457C50.5314 156.732 51.0804 156.957 51.1804 156.957C51.2804 156.957 51.6464 157.083 51.9934 157.238C54.4244 158.32 60.2964 160.134 64.1234 160.984C75.7864 163.575 87.8674 163.54 100.023 160.878C104.53 159.892 111 157.902 113.423 156.757C113.643 156.653 114.317 156.378 114.921 156.146C116.65 155.483 121.251 153.183 123.18 152.018C124.146 151.434 124.971 150.957 125.011 150.957C125.077 150.957 127.157 149.621 128.196 148.911C139.4 141.262 150.425 128.694 155.788 117.457C156.103 116.797 156.617 115.717 156.931 115.057C162.105 104.171 164.889 88.9466 163.917 76.8566C163.246 68.5206 162.663 64.8416 161.19 59.6566C160.581 57.5146 160.261 56.4406 160.116 56.0566C160.033 55.8366 159.809 55.2066 159.619 54.6566C159.428 54.1066 159.158 53.3866 159.019 53.0566C158.88 52.7266 158.356 51.4586 157.855 50.2376C156.8 47.6696 154.703 43.4286 153.239 40.9036C152.68 39.9386 152.133 38.9926 152.023 38.7996C151.913 38.6066 151.62 38.1666 151.373 37.8216C151.126 37.4766 150.923 37.1446 150.923 37.0836C150.923 36.9386 147.604 32.2296 146.798 31.2316C146.454 30.8056 145.74 29.9166 145.213 29.2566C142.118 25.3856 135.729 19.4236 131.115 16.1026C126.194 12.5596 120.934 9.45859 116.523 7.49859C115.918 7.22959 114.973 6.81159 114.423 6.56859C113.873 6.32659 113.139 5.99959 112.793 5.84259C112.446 5.68459 112.037 5.55659 111.883 5.55659C111.729 5.55659 111.517 5.47659 111.413 5.37959C111.212 5.19259 107.188 3.80959 105.323 3.28759C102.479 2.49059 101.931 2.34659 100.623 2.05259C99.8534 1.87959 99.0434 1.69259 98.8234 1.63859C93.7504 0.38159 82.1804 -0.344411 75.3234 0.163589ZM89.5234 10.1546C94.1684 10.8026 99.0474 11.7556 100.723 12.3406C100.998 12.4366 101.763 12.6646 102.423 12.8476C103.083 13.0306 103.779 13.2646 103.97 13.3686C104.161 13.4716 104.412 13.5566 104.527 13.5566C105.716 13.5566 114.513 17.7156 118.617 20.2166C119.558 20.7906 123.96 23.7876 124.123 23.9656C124.178 24.0256 124.766 24.4886 125.429 24.9936C129.353 27.9826 134.919 33.6376 137.773 37.5346C138.225 38.1516 138.65 38.7016 138.718 38.7566C138.966 38.9586 140.723 41.5816 140.723 41.7496C140.723 41.8446 140.794 41.9536 140.88 41.9896C141.013 42.0466 143.143 45.4836 143.749 46.6196C146.146 51.1126 148.678 57.2636 149.526 60.6566C149.609 60.9866 149.873 61.9766 150.114 62.8566C151.605 68.2986 151.905 71.2536 151.899 80.4566C151.893 89.7216 151.688 91.6656 150.074 97.7566C149.855 98.5816 149.609 99.5266 149.526 99.8566C149.071 101.675 146.628 108.229 145.919 109.531C145.821 109.71 145.343 110.667 144.856 111.657C143.492 114.43 143.337 114.715 141.982 116.912C138.538 122.495 136.772 124.693 131.088 130.465L126.55 135.072L126.666 137.015C126.793 139.152 126.545 139.611 126.128 138.007C125.993 137.485 125.768 136.652 125.629 136.157C124.572 132.397 124.768 132.963 123.743 130.688C123.403 129.934 122.878 128.989 122.574 128.588C122.041 127.881 121.323 126.687 121.323 126.507C121.323 126.296 122.317 125.352 123.423 124.513C124.856 123.426 126.935 121.278 128.026 119.757C129.151 118.189 128.89 118.399 131.123 117.259C134.112 115.732 135.049 112.742 133.361 110.117L132.499 108.776L132.817 107.417C132.992 106.669 133.226 105.742 133.337 105.357C133.682 104.166 133.777 101.148 133.534 99.1566C133.406 98.1116 133.214 96.1786 133.107 94.8606C132.905 92.3656 132.707 91.3376 132.198 90.1566C131.243 87.9386 129.145 84.2896 128.047 82.9346C127.814 82.6476 127.488 82.2046 127.323 81.9506C124.093 76.9816 114.946 72.7716 107.923 73.0206C98.5254 73.3526 92.2374 75.9216 87.7604 81.2566C87.2994 81.8066 86.6664 82.5286 86.3554 82.8606C85.5204 83.7506 82.4704 87.9156 81.8904 88.9566C81.4834 89.6866 81.3634 90.2526 81.2524 91.9536C81.1764 93.1076 81.0274 94.3226 80.9204 94.6536C80.7214 95.2706 79.7574 98.6036 79.3504 100.08C78.9134 101.665 79.2084 103.098 80.4174 105.26C82.3014 108.628 82.3424 108.82 81.4054 109.883C79.0944 112.505 79.8194 115.862 83.0384 117.438C84.8634 118.332 85.2884 118.138 84.8084 116.63C84.6384 116.095 84.4214 115.41 84.3254 115.107C83.9344 113.872 84.6994 114.625 85.5444 116.307C86.0274 117.269 86.4904 118.087 86.5734 118.124C86.6564 118.16 86.7234 118.28 86.7234 118.389C86.7234 119.596 91.3794 124.047 94.2234 125.558C94.5534 125.733 95.0034 125.981 95.2234 126.11C95.4434 126.238 96.0734 126.531 96.6234 126.761C97.1734 126.991 97.8034 127.257 98.0234 127.352C98.5014 127.56 99.9154 128.028 101.023 128.345C102.141 128.665 104.171 128.926 107.308 129.153C111.52 129.458 111.477 130.104 107.26 129.881C102.858 129.648 100.685 129.241 96.1634 127.802L93.9034 127.083L93.4484 127.573C92.8094 128.262 90.4364 133.142 89.8094 135.057C89.2224 136.847 88.8634 138.718 88.4294 142.257C87.7494 147.793 87.4054 148.4 86.7324 145.257C86.4474 143.927 86.2684 143.185 85.2104 138.957C84.8104 137.362 84.3634 135.562 84.2164 134.957C84.0694 134.352 83.8614 133.542 83.7554 133.157C83.5334 132.358 82.4104 128.154 82.0184 126.657C81.7664 125.696 80.6494 121.65 80.0014 119.357C79.8314 118.752 79.6154 118.032 79.5224 117.757C79.4294 117.482 79.1594 116.582 78.9234 115.757C78.6874 114.932 78.4184 114.032 78.3274 113.757C78.2354 113.482 77.9944 112.702 77.7924 112.024C77.3304 110.478 77.2924 110.46 71.6234 108.963C70.3034 108.615 68.5784 108.111 67.7894 107.843C66.1884 107.3 66.1234 107.288 66.1234 107.526C66.1234 107.661 67.9794 110.376 68.6734 111.257C70.2414 113.247 74.3454 121.778 75.7444 125.954C76.5304 128.301 76.4044 128.535 72.3734 132.197C70.6614 133.753 70.6444 133.702 73.9024 136.916C76.9484 139.92 77.1784 140.233 76.9964 141.141C76.8414 141.919 76.5484 141.934 76.3964 141.172C76.2504 140.443 75.0454 139.04 72.2534 136.349C69.2184 133.422 69.2254 133.917 72.1764 131.072C75.6384 127.733 75.7134 127.434 74.0214 123.657C73.8734 123.327 73.5564 122.607 73.3174 122.057C71.1784 117.143 66.8394 109.384 65.2104 107.561C63.6474 105.812 63.7144 103.998 65.3654 103.357C67.7134 102.445 68.3494 101.975 70.9474 99.2316C71.7754 98.3566 72.0894 98.1856 74.0064 97.5666C76.8044 96.6616 76.7864 96.6946 75.4524 94.9186C73.6424 92.5096 73.7474 91.6856 75.8934 91.4636C78.0164 91.2446 79.1234 90.9516 79.1234 90.6076C79.1234 90.3016 78.2984 87.7026 77.9324 86.8566C77.3544 85.5196 77.5364 85.1296 78.9494 84.6666C80.9894 83.9996 85.1374 82.0146 85.2594 81.6466C85.3164 81.4756 84.7274 81.0886 82.5354 79.8566C81.0434 79.0186 78.9964 77.5576 78.3234 76.8516L77.6234 76.1176L78.1064 75.7906C78.3714 75.6116 79.4514 75.1726 80.5064 74.8156C81.5604 74.4586 82.6034 74.0816 82.8234 73.9786C83.0434 73.8746 84.0784 73.3916 85.1234 72.9056C86.1684 72.4186 87.9044 71.4776 88.9814 70.8146L90.9394 69.6096L90.2514 69.2836C89.8724 69.1036 89.5154 68.9566 89.4574 68.9566C89.3334 68.9566 86.7854 67.8276 86.2764 67.5476C86.0854 67.4426 85.8434 67.3566 85.7404 67.3566C85.6364 67.3566 84.9824 67.1006 84.2874 66.7866C83.5924 66.4736 82.7084 66.0986 82.3234 65.9536C80.5444 65.2826 80.3064 65.6186 87.3384 58.8856C90.6064 55.7566 91.0124 56.1766 83.7234 55.1486C79.4684 54.5486 78.5234 54.3176 78.5234 53.8766C78.5234 53.4256 82.0544 46.8276 82.9224 45.6566C83.0934 45.4246 84.2644 43.3206 84.6814 42.4946C85.0954 41.6726 84.7444 41.7056 82.2604 42.7256C81.9504 42.8526 81.5834 42.9566 81.4434 42.9566C81.3044 42.9566 81.1354 43.0116 81.0684 43.0786C80.9464 43.2006 78.5854 44.0606 76.5234 44.7336C73.4564 45.7356 73.5294 45.7346 73.0384 44.7846C72.4444 43.6366 71.9444 38.7256 71.9324 33.9126C71.9224 30.0356 72.2184 30.2626 69.3234 31.9156C66.4774 33.5416 63.8754 35.5496 61.4364 38.0056L59.2494 40.2066L58.3714 39.2316C57.3124 38.0546 57.2454 37.9726 56.1174 36.4566C55.6264 35.7966 55.1794 35.2116 55.1234 35.1566C55.0684 35.1016 54.7174 34.6966 54.3434 34.2566C51.6164 31.0466 50.1004 29.4976 49.8944 29.7106C49.8164 29.7906 49.6534 30.6666 49.5324 31.6566C49.1974 34.3946 48.8494 36.1536 47.9334 39.7346C47.2914 42.2456 46.5344 43.1606 45.4874 42.6896C40.7874 40.5746 36.6634 39.1616 35.1734 39.1566C34.9544 39.1556 35.2494 40.0746 35.9134 41.4596C36.3474 42.3656 36.7654 43.3656 36.8404 43.6816C36.9164 43.9976 37.0404 44.3466 37.1154 44.4566C37.1914 44.5666 37.4094 45.2416 37.6014 45.9566C37.7924 46.6716 38.0334 47.5326 38.1364 47.8706C38.4114 48.7726 38.3704 50.8706 38.0734 51.1066C37.9364 51.2166 36.9684 51.3586 35.9234 51.4216C30.1464 51.7736 23.6834 52.4276 23.7134 52.6566C23.7344 52.8196 26.9354 56.3506 28.1424 57.5416C29.7064 59.0856 31.7234 62.3216 31.7234 63.2866C31.7234 64.1736 31.4164 64.4296 24.1534 69.6086C21.4554 71.5326 21.3644 71.3046 25.2234 72.2706C27.8404 72.9256 30.0164 74.1966 31.9344 76.1906C33.7294 78.0566 33.8364 77.7226 30.2864 81.3116C25.9744 85.6706 25.9934 85.2866 30.0314 86.5676C31.1274 86.9146 32.1584 87.2476 32.3234 87.3076C32.4884 87.3666 33.1634 87.6086 33.8234 87.8436C35.3404 88.3846 35.3764 88.6046 34.5284 92.1016C34.1874 93.5066 33.8634 94.8816 33.8064 95.1566C33.7504 95.4316 33.6574 95.8146 33.6004 96.0066C33.4714 96.4416 36.4374 96.5076 38.7034 96.1186C40.6794 95.7796 40.9374 96.1656 41.2344 99.9066C41.3874 101.839 41.3334 101.814 43.4374 100.938C45.1814 100.212 45.1714 100.253 44.0224 98.4786C43.2624 97.3066 42.4444 95.7386 41.7154 94.0566C41.3244 93.1556 40.5264 90.5446 40.1264 88.8566C39.8914 87.8666 39.6144 86.6966 39.5094 86.2566C38.9214 83.7946 38.5134 79.1566 38.8834 79.1566C39.1344 79.1566 39.4744 80.5566 39.6114 82.1566C39.9214 85.7886 41.5094 91.3896 43.3394 95.3156C45.1684 99.2376 46.5104 100.619 50.3864 102.569C52.9874 103.877 52.8924 103.784 52.7724 104.911C52.6294 106.25 52.9834 106.071 45.5394 108.557L38.7484 110.826L38.2204 112.541C37.9294 113.485 37.6114 114.482 37.5134 114.757C37.4154 115.032 37.1454 115.932 36.9134 116.757C36.6804 117.582 36.3574 118.707 36.1934 119.257C36.0294 119.807 35.8214 120.527 35.7314 120.857C35.2994 122.431 34.7384 124.37 34.0094 126.807C33.8364 127.385 33.6104 128.217 33.5054 128.657C33.4014 129.097 33.2344 129.637 33.1354 129.857C33.0354 130.077 32.8004 130.773 32.6124 131.405C32.1254 133.04 31.6224 133.418 31.8174 132.004C31.9814 130.805 31.8414 130.556 29.5234 127.958C28.8084 127.156 28.0554 126.311 27.8504 126.079C24.0454 121.774 19.2374 113.996 16.7104 108.057C16.1854 106.823 15.4484 104.906 15.0974 103.857C14.8754 103.197 14.6184 102.477 14.5244 102.257C14.3664 101.886 14.0474 100.807 13.5184 98.8566C13.3994 98.4166 13.1794 97.6066 13.0304 97.0566C12.7444 96.0046 12.4584 94.6436 12.0024 92.1566C10.1184 81.8986 11.1654 68.5096 14.6854 57.8566C15.4374 55.5786 15.6104 55.1116 16.2514 53.6266C16.4014 53.2796 16.5234 52.9476 16.5234 52.8886C16.5234 52.7476 18.0064 49.5156 18.6024 48.3566C19.7944 46.0386 20.0704 45.5406 21.0994 43.8566C21.7044 42.8666 22.2724 42.0266 22.3614 41.9896C22.4504 41.9536 22.5234 41.8476 22.5234 41.7556C22.5234 41.3736 25.7214 36.9826 27.5234 34.8906C30.4104 31.5386 33.4724 28.4936 36.2054 26.2566C36.7424 25.8166 37.2814 25.3606 37.4034 25.2426C37.5244 25.1246 38.5684 24.3366 39.7234 23.4896C40.8784 22.6436 41.9174 21.8756 42.0324 21.7846C43.5864 20.5446 51.3934 16.3326 54.3234 15.1516C54.9284 14.9086 55.7074 14.5846 56.0534 14.4326C56.4004 14.2806 56.8124 14.1566 56.9704 14.1566C57.1274 14.1566 57.3224 14.0906 57.4034 14.0096C57.4844 13.9296 57.8814 13.7586 58.2864 13.6306C58.6914 13.5016 59.7884 13.1536 60.7234 12.8566C64.5334 11.6456 69.7544 10.5886 74.0234 10.1626C75.3434 10.0306 76.5584 9.89059 76.7234 9.84959C77.4054 9.68459 87.9534 9.93559 89.5234 10.1546ZM50.2234 110.807C50.1074 111.215 49.7294 112.112 49.3014 112.992C48.2904 115.073 45.8774 121.6 44.3194 126.471C43.8594 127.91 44.2054 128.417 47.8104 131.589C49.1784 132.792 49.9234 133.523 49.9234 133.66C49.9234 133.952 49.3134 134.902 48.8434 135.341C48.1954 135.946 47.9324 135.734 48.3844 134.97C48.9634 133.988 48.8224 133.742 46.1714 131.127C42.8204 127.822 42.9354 128.079 43.7074 125.633C44.3124 123.715 46.0184 119.08 46.7164 117.457C46.9054 117.017 47.1784 116.342 47.3234 115.957C47.4684 115.572 47.7654 114.852 47.9834 114.357C48.2014 113.862 48.5534 113.053 48.7654 112.558C49.5144 110.813 50.5854 109.526 50.2234 110.807Z" fill="#24242C"/>
</svg>
